<svg xmlns="http://www.w3.org/2000/svg" viewBox="0 0 15.222 15.222"><path d="M13.485 7.377H3.218l.343-.244c2.549-1.472 8.188-5.01 8.188-5.01a.493.493 0 00.18-.67l-.49-1.208a.492.492 0 00-.671-.179L1.49 5.703a.494.494 0 00-.179.671l.889.963.007 7.395c0 .271.22.49.49.49h10.788a.49.49 0 00.49-.49V7.867a.49.49 0 00-.49-.49zm-3.557.579L8.414 9.427H6.452l1.472-1.471h2.004zm-.639-6.549L11.029.29l-.254 1.64-1.781 1.143.295-1.666zM6.187 3.316l1.771-1.103-.318 1.66-1.769 1.104.316-1.661zm-3.53 3.672l.297-1.666 1.757-1.123-.298 1.664-1.756 1.125zm1.835.968h1.961L4.982 9.427H3.021l1.471-1.471zm7.386 1.472H9.885l1.472-1.471h1.947l-1.426 1.471z" fill="#030104"/></svg>